<svg xmlns="http://www.w3.org/2000/svg" viewBox="0 0 200 150" width="100%" height="100%">
  <!-- 
  M2 SOVEREIGN ICON: SOMALI BLACKHEAD SHEEP (Adhi Soomaali)
  (Placeholder derived from the user's uploaded vector)
  -->
  <g transform="translate(10, 20)">
    <!-- Fat Tail & Back Body -->
    <path d="M70,40 C100,30 140,40 150,60 C165,70 160,95 145,100 C130,105 130,85 130,85 C120,110 80,105 70,80 Z" fill="#F8FAFC" stroke="#E2E8F0" stroke-width="2" />
    
    <!-- Chest and Front Legs -->
    <path d="M60,80 C60,110 80,120 75,130 C70,140 60,140 60,130 C60,110 40,80 60,80" fill="#F1F5F9" />
    <path d="M120,95 C120,115 130,120 125,130 C120,140 110,140 110,130 C110,110 100,90 120,95" fill="#E2E8F0" />
    <path d="M135,95 C135,115 145,120 140,130 C135,140 125,140 125,130 C125,110 115,90 135,95" fill="#F8FAFC" />
    <path d="M75,80 C75,110 95,120 90,130 C85,140 75,140 75,130 C75,110 55,80 75,80" fill="#F8FAFC" />
    
    <!-- Black Head & Neck Profile -->
    <path d="M60,80 C40,70 30,50 35,30 C30,20 40,10 50,15 C60,20 70,25 70,40 C70,60 65,70 60,80" fill="#0F172A" />
    <circle cx="45" cy="22" r="2" fill="#334155" />
    
    <!-- Drooping Ear -->
    <path d="M50,25 C50,40 40,50 45,60 C50,65 55,50 55,30 Z" fill="#1E293B" />
  </g>
</svg>
